<?xml version="1.0" encoding="utf-8"?>
<!-- Generator: Adobe Illustrator 23.0.1, SVG Export Plug-In . SVG Version: 6.00 Build 0)  -->
<svg version="1.1" id="Réteg_1" xmlns="http://www.w3.org/2000/svg" xmlns:xlink="http://www.w3.org/1999/xlink" x="0px" y="0px"
	 viewBox="0 0 200 148" style="enable-background:new 0 0 200 148;" xml:space="preserve">
<style type="text/css">
	.st0{fill:none;stroke:#fff;stroke-width:3;stroke-linecap:round;stroke-linejoin:round;stroke-miterlimit:10;}
</style>
<g id="LWPOLYLINE">
	<path class="st0" d="M5.02,38.53c-0.01,0.03-0.02,0.06-0.02,0.09c0,3.47,0,6.94,0,10.4c0,3.82,0,7.65,0,11.47
		c0,4.54,0,9.07,0,13.61l0.02,35.47l5.45,0.02l5.45,0.02V74.02V38.43H10.5c-0.93,0-1.86,0-2.79,0c-0.51,0-1.03,0.01-1.54,0.02
		c-0.36,0.01-0.71,0.01-1.07,0.02C5.07,38.48,5.03,38.5,5.02,38.53z"/>
</g>
<g id="LWPOLYLINE_1_">
	<path class="st0" d="M34.66,38.51c-0.01,0.02-0.03,0.04-0.04,0.05c-0.2,0.17-0.41,0.35-0.61,0.52c-0.23,0.2-0.46,0.39-0.69,0.59
		c-0.27,0.23-0.54,0.46-0.81,0.68c-0.36,0.3-0.72,0.6-1.08,0.9c-0.53,0.44-1.06,0.89-1.59,1.33c-0.59,0.49-1.18,0.99-1.77,1.48
		c-0.57,0.47-1.13,0.95-1.7,1.42c-0.53,0.45-1.07,0.89-1.6,1.34c-0.49,0.41-0.98,0.82-1.47,1.23c-0.41,0.34-0.82,0.69-1.24,1.03
		c-0.17,0.14-0.33,0.28-0.5,0.42l-0.78,0.65l0,14.69l0,14.69l0.62,0.77c0.12,0.15,0.24,0.29,0.36,0.44
		c0.22,0.27,0.44,0.54,0.66,0.81c0.26,0.32,0.52,0.63,0.78,0.95c0.27,0.33,0.53,0.65,0.8,0.98c0.27,0.33,0.53,0.65,0.8,0.98
		c0.25,0.31,0.51,0.62,0.76,0.93c0.22,0.26,0.43,0.53,0.65,0.79c0.11,0.14,0.22,0.27,0.33,0.41c0.58,0.72,1.17,1.43,1.75,2.15
		c0.71,0.88,1.43,1.75,2.14,2.63c0.68,0.83,1.36,1.66,2.03,2.49c0.28,0.34,0.56,0.68,0.83,1.02c0.32,0.39,0.65,0.79,0.97,1.19
		c0.32,0.39,0.64,0.78,0.95,1.18c0.31,0.38,0.61,0.77,0.92,1.15c0.01,0.02,0.02,0.04,0.02,0.06c0,0.01-0.01,0.02-0.02,0.02
		c-0.74,0.01-1.49,0.01-2.23,0.02c-0.83,0.01-1.65,0.01-2.48,0.02c-0.98,0-1.96,0.01-2.94,0.01l-7.67,0.02l-0.02,5.54l-0.02,5.54
		h28.42h28.42v-5.38c0-0.96,0-1.92,0-2.88c0-0.5-0.01-0.99-0.02-1.49c-0.01-0.33-0.01-0.65-0.02-0.98c0-0.05-0.02-0.1-0.06-0.13
		c-0.04-0.03-0.08-0.05-0.13-0.05c-0.59-0.01-1.19-0.02-1.78-0.03c-0.79-0.01-1.59-0.02-2.38-0.02c-1.25-0.01-2.49-0.01-3.74-0.01
		l-7.92-0.02V86.1V73.58l7.97-0.04c1.02,0,2.04-0.01,3.06-0.02c0.86,0,1.72-0.01,2.58-0.02c0.78-0.01,1.56-0.01,2.34-0.02
		c0.01,0,0.01,0,0.02-0.01c0,0,0.01-0.01,0.01-0.02c0-0.49,0-0.98,0-1.47c0-0.54,0-1.08,0-1.62c0-0.64,0-1.28-0.01-1.92l-0.02-5.01
		l-20.69-0.02c-2.65,0-5.3,0-7.95,0c-2.24,0-4.48,0-6.72,0c-2.02,0-4.04,0-6.06,0.01c-0.05,0-0.1,0.01-0.15,0.02l-0.18,0.04v4.93
		c0,0.81,0,1.63,0,2.44c0,0.48,0.01,0.97,0.02,1.45c0.01,0.34,0.01,0.68,0.02,1.02c0,0.05,0.02,0.09,0.05,0.12
		c0.03,0.03,0.08,0.05,0.13,0.05c0.51,0.01,1.01,0.02,1.52,0.02c0.71,0.01,1.42,0.01,2.14,0.02c1.22,0,2.44,0,3.66,0h7.35v12.57
		c0,2.5,0,5,0,7.5c0,1.02-0.01,2.04-0.02,3.07c-0.01,0.63-0.01,1.27-0.02,1.9c0,0.01,0,0.01,0,0.02c-0.01,0.03-0.05,0.05-0.08,0.04
		c-0.02-0.01-0.03-0.01-0.05-0.02c-0.02-0.01-0.03-0.01-0.05-0.02c-0.01,0-0.03-0.01-0.04-0.01c0,0-0.01,0-0.02,0
		c-0.01,0-0.01,0-0.02-0.01c-0.06-0.07-0.12-0.14-0.17-0.21c-0.07-0.08-0.13-0.16-0.2-0.24c-0.08-0.1-0.15-0.19-0.23-0.29
		c-0.09-0.12-0.19-0.23-0.28-0.35c-0.12-0.15-0.24-0.29-0.35-0.44c-0.12-0.15-0.25-0.3-0.37-0.45c-0.11-0.13-0.22-0.26-0.32-0.39
		c-0.11-0.13-0.22-0.26-0.33-0.39c-0.12-0.15-0.25-0.3-0.37-0.45c-0.12-0.15-0.24-0.29-0.36-0.44c-0.09-0.11-0.19-0.23-0.28-0.35
		c-0.11-0.14-0.23-0.28-0.34-0.42c-0.21-0.26-0.42-0.51-0.62-0.77c-0.24-0.3-0.49-0.6-0.73-0.9c-0.25-0.31-0.5-0.62-0.75-0.92
		c-3.11-3.81-6.23-7.63-9.34-11.44c-2.41-2.95-4.81-5.9-7.21-8.85c-2.07-2.54-4.14-5.08-6.21-7.62c-0.02-0.03-0.04-0.06-0.05-0.1
		c-0.01-0.02,0-0.04,0.01-0.05c0.32-0.28,0.64-0.55,0.96-0.83c0.36-0.31,0.72-0.62,1.08-0.92c0.43-0.36,0.86-0.72,1.28-1.08
		c0.5-0.42,1.01-0.84,1.51-1.26c0.59-0.49,1.18-0.99,1.77-1.48c0.58-0.49,1.17-0.98,1.75-1.46c0.48-0.4,0.96-0.8,1.43-1.2
		c1.58-1.33,3.17-2.65,4.75-3.97c1.79-1.5,3.58-3,5.37-4.49c1.65-1.38,3.29-2.76,4.94-4.13c0.96-0.8,1.92-1.61,2.88-2.41
		c0.26-0.22,0.52-0.44,0.78-0.66c0.22-0.19,0.44-0.37,0.66-0.56c0.19-0.17,0.39-0.33,0.58-0.5c0.01-0.01,0.02-0.03,0.02-0.04
		c0-0.04-0.03-0.07-0.07-0.07c-2.79,0-5.59,0-8.38,0c-2.79,0-5.58,0-8.37,0.01C34.73,38.44,34.68,38.46,34.66,38.51z"/>
</g>
<g id="LWPOLYLINE_2_">
	<path class="st0" d="M82.32,63.47c-0.02,0.04-0.04,0.09-0.04,0.13c0,1.59-0.01,3.19-0.01,4.78c0,1.6,0,3.2-0.01,4.8
		c0,0.03,0.01,0.07,0.04,0.09c0.01,0.01,0.02,0.01,0.03,0.01c0.69,0,1.37,0.01,2.06,0.01c0.76,0,1.52,0,2.28,0.01c0.9,0,1.8,0,2.7,0
		c0.9,0,1.8,0,2.71,0c0.77,0,1.53,0.01,2.29,0.01c0.68,0.01,1.37,0.01,2.05,0.02c0.03,0,0.06,0.01,0.09,0.03
		c0.04,0.02,0.06,0.06,0.06,0.11c0.01,0.83,0.01,1.66,0.02,2.48c0.01,1.18,0.01,2.36,0.01,3.54c0,2.18,0,4.35-0.01,6.53l-0.02,12.6
		l-7.08,0.02c-0.91,0-1.81,0.01-2.72,0.01c-0.77,0-1.53,0.01-2.3,0.02c-0.69,0.01-1.37,0.02-2.06,0.03c-0.02,0-0.05,0.01-0.06,0.03
		c-0.02,0.02-0.04,0.05-0.04,0.09c-0.01,1.21-0.01,2.41-0.02,3.62c-0.01,1.19-0.01,2.39-0.01,3.58c0,1.14,0,2.28,0.01,3.41l0,0.18
		h12.6h12.6V86.6c0-3.87,0-7.74,0-11.61c0-2.2-0.01-4.39-0.02-6.59c-0.01-1.59-0.01-3.19-0.02-4.78c0-0.05-0.02-0.1-0.06-0.13
		c-0.06-0.06-0.14-0.09-0.22-0.09c-4.11,0-8.22-0.01-12.33-0.01h0c-4.12,0-8.23-0.01-12.35-0.01h0
		C82.42,63.38,82.36,63.41,82.32,63.47z"/>
</g>
<g id="LWPOLYLINE_3_">
	<path class="st0" d="M112.12,63.44c-0.04,0.04-0.07,0.1-0.07,0.16c0,2.61,0.01,5.22,0.01,7.83c0,2.6,0.01,5.19,0.01,7.79
		c0,0.09,0.02,0.19,0.07,0.27c0.04,0.08,0.1,0.16,0.16,0.24c0.25,0.31,0.5,0.62,0.75,0.93c0.4,0.49,0.79,0.98,1.19,1.47
		c0.8,0.99,1.61,1.97,2.41,2.96c0.39,0.48,0.78,0.96,1.17,1.44c0.34,0.42,0.68,0.83,1.02,1.25c0.29,0.36,0.58,0.72,0.88,1.08
		c0.05,0.06,0.1,0.12,0.15,0.19c0.05,0.06,0.1,0.13,0.15,0.19c0.41,0.51,0.83,1.01,1.24,1.52c0.47,0.58,0.95,1.16,1.42,1.74
		c0.55,0.67,1.1,1.35,1.65,2.02c1.96,2.4,3.92,4.8,5.88,7.21c1.19,1.46,2.38,2.92,3.56,4.38c0.88,1.09,1.77,2.18,2.66,3.27
		c0.03,0.04,0.06,0.09,0.08,0.13c0.01,0.02,0.02,0.03,0.04,0.04c0.03,0.01,0.06,0.02,0.09,0.03c0.04,0.01,0.09,0.02,0.13,0.02
		c0.06,0,0.11,0.01,0.17,0.01h0.39v-8.19v-8.19l-0.66-0.81c-0.58-0.71-1.16-1.43-1.74-2.14c-0.53-0.65-1.06-1.3-1.59-1.95
		c-0.44-0.54-0.88-1.08-1.32-1.62c-0.26-0.31-0.51-0.63-0.77-0.94c-0.13-0.16-0.27-0.33-0.4-0.49c-0.16-0.19-0.31-0.38-0.47-0.57
		c-0.15-0.19-0.31-0.38-0.46-0.57c-0.13-0.15-0.25-0.31-0.38-0.46c-0.17-0.21-0.34-0.42-0.51-0.63c-0.4-0.49-0.8-0.98-1.2-1.48
		c-0.48-0.59-0.96-1.17-1.43-1.76c-0.51-0.63-1.03-1.26-1.54-1.89c-0.52-0.64-1.05-1.28-1.57-1.93c-0.5-0.62-1.01-1.24-1.51-1.86
		c-0.43-0.53-0.86-1.05-1.29-1.58c-0.23-0.28-0.46-0.56-0.68-0.84c-0.17-0.21-0.34-0.41-0.5-0.62c-0.18-0.22-0.36-0.44-0.54-0.66
		c-0.16-0.2-0.33-0.4-0.49-0.6c-0.12-0.14-0.23-0.28-0.35-0.42c-0.11-0.13-0.21-0.26-0.32-0.39c-0.13-0.16-0.26-0.32-0.39-0.48
		c-0.13-0.16-0.27-0.33-0.4-0.49c-0.11-0.14-0.23-0.28-0.34-0.42c-0.56-0.69-1.11-1.37-1.67-2.06c-0.31-0.38-0.62-0.76-0.93-1.14
		c-0.2-0.25-0.41-0.5-0.62-0.75c-0.05-0.06-0.11-0.12-0.17-0.18c-0.05-0.04-0.11-0.08-0.18-0.09c-0.11-0.02-0.22-0.04-0.33-0.05
		c-0.11-0.01-0.22-0.01-0.33-0.01C112.21,63.38,112.16,63.41,112.12,63.44z"/>
</g>
<g id="LWPOLYLINE_4_">
	<path class="st0" d="M141.4,63.44c-0.04,0.01-0.06,0.05-0.06,0.09c-0.01,1.53-0.01,3.06-0.02,4.58c-0.01,2.15-0.01,4.31-0.02,6.46
		c0,3.99,0,7.98,0,11.97v23.06h5.43h5.43V86.55c0-4.58,0-9.16,0-13.74c0-1.88-0.01-3.77-0.02-5.65c-0.01-1.2-0.01-2.39-0.02-3.59
		c0-0.05-0.03-0.1-0.09-0.12c-0.07-0.03-0.15-0.04-0.23-0.04c-1.7,0-3.39,0-5.09,0c-1.7,0-3.4,0-5.1,0
		C141.54,63.4,141.47,63.42,141.4,63.44z"/>
</g>
<g id="LWPOLYLINE_5_">
	<path class="st0" d="M156.49,63.44c-0.01,0.01-0.02,0.03-0.02,0.05c0,0.78-0.01,1.55-0.02,2.33c-0.01,0.86-0.01,1.73-0.01,2.59
		c0,1.02,0,2.04,0,3.07v7.99l0.55,0.67c0.11,0.13,0.21,0.27,0.32,0.4c0.21,0.26,0.43,0.52,0.64,0.79c0.25,0.31,0.5,0.62,0.76,0.93
		c0.26,0.32,0.53,0.65,0.79,0.97c0.43,0.52,0.86,1.05,1.29,1.57c0.28,0.34,0.55,0.67,0.82,1.01c0.27,0.33,0.54,0.66,0.81,1
		c0.41,0.5,0.82,1.01,1.22,1.51c0.17,0.21,0.34,0.42,0.51,0.63c0.26,0.32,0.52,0.64,0.78,0.96c0.29,0.36,0.59,0.72,0.88,1.08
		c0.29,0.35,0.58,0.71,0.87,1.06c0.28,0.34,0.55,0.67,0.83,1.01c0.25,0.31,0.51,0.62,0.76,0.93c0.21,0.26,0.43,0.52,0.64,0.78
		c0.09,0.11,0.18,0.22,0.27,0.33c0.06,0.07,0.12,0.15,0.18,0.22c0.07,0.08,0.13,0.16,0.2,0.24c0.06,0.08,0.12,0.15,0.18,0.22
		c0.05,0.06,0.09,0.11,0.14,0.17c0.05,0.06,0.1,0.12,0.15,0.18c0.08,0.09,0.15,0.19,0.23,0.28c0.09,0.11,0.17,0.21,0.26,0.32
		c0.08,0.1,0.17,0.21,0.25,0.31c0.08,0.1,0.17,0.21,0.25,0.31c0.09,0.11,0.17,0.21,0.26,0.32c0.08,0.1,0.16,0.19,0.23,0.28
		c0.05,0.06,0.1,0.12,0.16,0.19c0.04,0.05,0.08,0.09,0.12,0.14c0.03,0.04,0.07,0.09,0.1,0.13c0.03,0.04,0.05,0.07,0.08,0.11
		c0.01,0.01,0.01,0.03,0.01,0.05c0,0.02-0.01,0.03-0.03,0.03c-0.66,0.01-1.32,0.01-1.98,0.02c-0.79,0.01-1.57,0.01-2.36,0.02
		c-1.04,0-2.08,0-3.13,0c-0.97,0-1.94,0-2.91,0.01c-0.81,0-1.63,0.01-2.44,0.02c-0.72,0.01-1.44,0.01-2.17,0.02
		c-0.04,0-0.07,0.01-0.1,0.03c-0.04,0.03-0.07,0.07-0.07,0.12c-0.01,0.3-0.01,0.61-0.02,0.91c0,0.48-0.01,0.95,0,1.43
		c0.01,0.97,0.02,1.95,0.03,2.92c0.01,0.68,0.01,1.36,0.02,2.04c0.01,0.58,0.01,1.16,0.02,1.73c0,0.52,0.01,1.03,0.01,1.55
		c0,0.03,0,0.05,0,0.08c0,0.03,0.03,0.06,0.06,0.06c0,0,0,0,0,0c1.26,0.01,2.52,0.01,3.78,0.02c1.78,0.01,3.56,0.01,5.33,0.02
		c3.3,0,6.61,0,9.91,0c2.44,0,4.88,0,7.32,0c2.05,0,4.11,0,6.16-0.01c1.86,0,3.73-0.01,5.59-0.01c0.01,0,0.02-0.01,0.02-0.02
		c0-0.02-0.01-0.03-0.02-0.04c-0.32-0.39-0.63-0.78-0.95-1.18c-0.4-0.49-0.8-0.99-1.2-1.48c-0.59-0.72-1.18-1.45-1.77-2.17
		c-0.11-0.13-0.22-0.27-0.33-0.4c-0.14-0.18-0.29-0.35-0.43-0.53c-0.15-0.19-0.3-0.37-0.45-0.55c-0.13-0.17-0.27-0.33-0.4-0.5
		c-0.15-0.19-0.31-0.38-0.46-0.57c-0.22-0.27-0.44-0.53-0.65-0.8c-0.24-0.29-0.48-0.58-0.71-0.87c-0.22-0.27-0.45-0.55-0.67-0.82
		c-0.22-0.27-0.44-0.54-0.67-0.81c-0.23-0.28-0.46-0.57-0.7-0.85c-0.21-0.26-0.42-0.51-0.63-0.77c-0.14-0.18-0.29-0.35-0.43-0.53
		c-0.11-0.14-0.23-0.28-0.34-0.42c-0.11-0.13-0.21-0.26-0.32-0.39c-0.09-0.11-0.18-0.22-0.27-0.32c-0.04-0.05-0.08-0.09-0.12-0.14
		c-0.03-0.04-0.06-0.07-0.09-0.11c-0.04-0.05-0.09-0.1-0.13-0.16c-0.05-0.06-0.09-0.11-0.14-0.17c-0.04-0.05-0.09-0.11-0.13-0.16
		c-0.06-0.08-0.13-0.16-0.19-0.24c-0.15-0.18-0.29-0.36-0.44-0.54c-0.18-0.21-0.35-0.43-0.53-0.64c-0.19-0.23-0.38-0.46-0.57-0.69
		c-0.2-0.25-0.41-0.5-0.61-0.75c-0.22-0.27-0.44-0.54-0.66-0.81c-0.2-0.25-0.41-0.5-0.61-0.75c-0.15-0.18-0.3-0.37-0.45-0.55
		c-0.31-0.39-0.63-0.78-0.95-1.17c-0.25-0.31-0.5-0.61-0.74-0.92c-0.23-0.29-0.47-0.58-0.7-0.86c-0.27-0.33-0.54-0.66-0.81-0.99
		c-0.16-0.19-0.32-0.39-0.48-0.59c-0.19-0.23-0.38-0.47-0.58-0.7c-0.19-0.23-0.38-0.47-0.57-0.7c-0.16-0.19-0.32-0.39-0.48-0.59
		c-1.15-1.41-2.3-2.82-3.45-4.23c-1.49-1.83-2.99-3.67-4.48-5.5c-1.44-1.77-2.88-3.53-4.32-5.3c-0.62-0.76-1.24-1.52-1.86-2.28
		c-0.25-0.31-0.51-0.62-0.76-0.93c-0.22-0.27-0.44-0.54-0.66-0.8c-0.19-0.23-0.39-0.46-0.58-0.69c-0.03-0.03-0.06-0.06-0.09-0.09
		c-0.04-0.04-0.1-0.06-0.16-0.07c-0.11-0.01-0.21-0.03-0.32-0.03c-0.11-0.01-0.22-0.01-0.32,0
		C156.56,63.39,156.52,63.41,156.49,63.44z"/>
</g>
</svg>
